<svg viewBox="0 0 357.42 344.44" xmlns="http://www.w3.org/2000/svg"><path d="m95.52 194.35c-49.13 1.9-90.53-37.08-92.46-87.04-1.92-49.97 36.35-92.02 85.49-93.91" fill="none" stroke="#e5e5e4" stroke-miterlimit="10" stroke-width="6"/><path d="m302.55 84.04c48.48 27.33 65.24 89.46 37.45 138.76-27.8 49.3-89.63 67.11-138.11 39.77" fill="none" stroke="#e5e5e4" stroke-miterlimit="10" stroke-width="8"/><path d="m96.58 170.67c-38.21 0-69.19-30.98-69.19-69.19s30.98-69.18 69.19-69.18" fill="#c1c1c1"/><path d="m96.58 133.85c25.11 0 45.47-22.3 45.47-49.81s-20.36-49.81-45.47-49.81" fill="#cccbcb"/><path d="m277.65 158.47c-20.72 0-37.52 18.4-37.52 41.1s16.8 41.1 37.52 41.1" fill="#d6d6d6"/><path d="m277.65 119.93c26.59 0 48.15 25.64 48.15 57.26s-21.55 57.26-48.15 57.26" fill="#c1c1c1"/><path d="m128.88 179.14c22.39 0 40.54 13.22 40.54 29.52s-18.15 29.53-40.54 29.53" fill="#c1c1c1"/><path d="m125.36 29.14c0-13.33 10.81-24.14 24.14-24.14h77.54c55.75 0 81.34 24.19 81.34 61.71 0 27.35-12.62 41.37-35.06 48.74 37.52 10.17 52.24 32.96 52.24 62.41 0 39.62-41.33 71.13-107.59 71.13m31.15-170.71c0-18.24-12.62-23.85-24.19-23.85h-41.02v49.09h41.02c11.57 0 24.19-6.31 24.19-25.24zm-18.96 122.72c27 0 34.39-14.73 34.39-29.8s-7.71-30.85-34.71-30.85h-48.76" fill="none" stroke="#fff" stroke-miterlimit="10" stroke-width="10"/><path d="m128.91 233.24c24.75 0 39.95-9.9 39.95-27.94 0-14.49-9.55-21.21-30.76-25.46l-35.36-7.07c-37.83-7.07-72.84-24.04-72.84-70.72 0-49.5 43.13-74.09 100.41-74.09m-3.87 49.35c-25.46 0-34.3 12.73-34.3 24.75 0 9.55 5.66 19.45 24.75 23.34l31.82 6.37c62.23 12.37 83.09 36.06 83.09 73.19 0 55.16-47.03 77.44-103.25 77.44" fill="none" stroke="#fff" stroke-miterlimit="10" stroke-width="10"/><g fill="#fff"><path d="m59.88 342.46c-.54.24-1.02.45-1.47.66-1.83.9-3.81 1.32-5.94 1.32-6.81 0-10.68-4.17-10.68-11.28s4.26-11.31 10.71-11.31c2.43 0 4.89.63 7.38 1.92v3.42h-.21c-2.28-1.89-4.74-2.88-7.38-2.88-4.65 0-7.47 3.39-7.47 8.85s2.88 8.79 7.5 8.79c2.79 0 5.25-.96 7.35-2.88h.21z"/><path d="m95.21 344.05h-3.75l-7.29-8.67h-4.11v8.67h-2.88v-21.81h6.09c2.97 0 5.07.54 6.33 1.62 1.23 1.05 1.86 2.49 1.86 4.32 0 3.03-1.47 5.16-4.44 6.33zm-15.14-19.32v8.22h2.94c4.02 0 5.43-1.65 5.43-4.56 0-2.46-1.65-3.66-4.95-3.66z"/><path d="m125.61 344.05h-14.37v-21.81h14.37v2.58h-11.49v5.97h11.49v2.58h-11.49v8.1h11.49z"/><path d="m160.59 344.05h-3.09l-2.13-6.09h-9.45l-2.13 6.09h-2.94l7.92-21.81h3.87zm-6.12-8.58-3.84-10.71-3.84 10.71z"/><path d="m190.88 324.82h-7.8v19.23h-2.88v-19.23h-7.8v-2.58h18.48z"/><path d="m214.7 344.05h-8.61v-2.22h2.85v-17.37h-2.85v-2.22h8.61v2.22h-2.85v17.37h2.85z"/><path d="m250.04 322.24-7.95 21.81h-3.87l-7.92-21.81h3.09l6.84 19.2 6.84-19.2z"/><path d="m280.94 344.05h-14.37v-21.81h14.37v2.58h-11.49v5.97h11.49v2.58h-11.49v8.1h11.49z"/><path d="m297.75 339.07h.21c2.1 1.8 5.4 2.88 7.89 2.88 3.6 0 5.7-1.5 5.7-3.72 0-2.49-1.5-3.12-5.22-3.69-4.26-.63-8.43-1.47-8.43-6.45 0-3.81 3.51-6.24 8.19-6.24 2.73 0 5.25.51 7.62 1.53v3.42h-.21c-1.62-1.35-4.68-2.46-7.44-2.46-3.06 0-5.16 1.41-5.16 3.45 0 .87.21 1.53.57 1.98.78.99 1.62 1.23 5.28 1.86 3.36.57 5.49 1.32 6.42 2.34s1.41 2.28 1.41 3.84c0 1.83-.78 3.39-2.34 4.68-1.53 1.32-3.69 1.95-6.42 1.95s-5.46-.57-8.07-1.74z"/></g></svg>
